<svg width="168" height="28" viewBox="0 0 168 28" fill="none" xmlns="http://www.w3.org/2000/svg">
<path d="M165.398 13.9091C165.398 16.6705 164.9 19.0568 163.902 21.0682C162.905 23.0795 161.537 24.6307 159.799 25.7216C158.06 26.8125 156.074 27.358 153.841 27.358C151.608 27.358 149.623 26.8125 147.884 25.7216C146.145 24.6307 144.777 23.0795 143.78 21.0682C142.783 19.0568 142.285 16.6705 142.285 13.9091C142.285 11.1477 142.783 8.76137 143.78 6.75C144.777 4.73864 146.145 3.1875 147.884 2.09659C149.623 1.00568 151.608 0.460228 153.841 0.460228C156.074 0.460228 158.06 1.00568 159.799 2.09659C161.537 3.1875 162.905 4.73864 163.902 6.75C164.9 8.76137 165.398 11.1477 165.398 13.9091ZM162.33 13.9091C162.33 11.642 161.951 9.7287 161.192 8.16904C160.442 6.60938 159.424 5.42898 158.137 4.62784C156.858 3.82671 155.427 3.42614 153.841 3.42614C152.256 3.42614 150.82 3.82671 149.533 4.62784C148.255 5.42898 147.236 6.60938 146.478 8.16904C145.728 9.7287 145.353 11.642 145.353 13.9091C145.353 16.1761 145.728 18.0895 146.478 19.6491C147.236 21.2088 148.255 22.3892 149.533 23.1903C150.82 23.9915 152.256 24.392 153.841 24.392C155.427 24.392 156.858 23.9915 158.137 23.1903C159.424 22.3892 160.442 21.2088 161.192 19.6491C161.951 18.0895 162.33 16.1761 162.33 13.9091Z" fill="black"/>
<path d="M138.696 13.9091C138.696 16.6705 138.198 19.0568 137.201 21.0682C136.203 23.0795 134.836 24.6307 133.097 25.7216C131.358 26.8125 129.373 27.358 127.14 27.358C124.907 27.358 122.921 26.8125 121.182 25.7216C119.444 24.6307 118.076 23.0795 117.078 21.0682C116.081 19.0568 115.583 16.6705 115.583 13.9091C115.583 11.1477 116.081 8.76137 117.078 6.75C118.076 4.73864 119.444 3.1875 121.182 2.09659C122.921 1.00568 124.907 0.460228 127.14 0.460228C129.373 0.460228 131.358 1.00568 133.097 2.09659C134.836 3.1875 136.203 4.73864 137.201 6.75C138.198 8.76137 138.696 11.1477 138.696 13.9091ZM135.628 13.9091C135.628 11.642 135.249 9.7287 134.49 8.16904C133.74 6.60938 132.722 5.42898 131.435 4.62784C130.157 3.82671 128.725 3.42614 127.14 3.42614C125.554 3.42614 124.118 3.82671 122.831 4.62784C121.553 5.42898 120.534 6.60938 119.776 8.16904C119.026 9.7287 118.651 11.642 118.651 13.9091C118.651 16.1761 119.026 18.0895 119.776 19.6491C120.534 21.2088 121.553 22.3892 122.831 23.1903C124.118 23.9915 125.554 24.392 127.14 24.392C128.725 24.392 130.157 23.9915 131.435 23.1903C132.722 22.3892 133.74 21.2088 134.49 19.6491C135.249 18.0895 135.628 16.1761 135.628 13.9091Z" fill="black"/>
<path d="M89.1397 27L81.9806 0.818184H85.2022L90.6738 22.142H90.9295L96.5033 0.818184H100.083L105.657 22.142H105.912L111.384 0.818184H114.606L107.447 27H104.174L98.3954 6.13636H98.1908L92.4124 27H89.1397Z" fill="black"/>
<path d="M78.7471 0.818184V27H75.5767V0.818184H78.7471Z" fill="black"/>
<path d="M52.9273 27V24.6989L67.041 3.63068H52.7739V0.818184H70.8251V3.11932L56.7114 24.1875H70.9785V27H52.9273Z" fill="black"/>
<path d="M45.0149 0.818184H48.1854V18.1534C48.1854 19.9432 47.7635 21.5412 46.9198 22.9474C46.0846 24.3452 44.9042 25.4489 43.3786 26.2585C41.853 27.0597 40.0632 27.4602 38.0093 27.4602C35.9553 27.4602 34.1655 27.0597 32.6399 26.2585C31.1144 25.4489 29.9297 24.3452 29.086 22.9474C28.2507 21.5412 27.8331 19.9432 27.8331 18.1534V0.818184H31.0036V17.8977C31.0036 19.1761 31.2848 20.3139 31.8473 21.3111C32.4098 22.2997 33.211 23.0795 34.2507 23.6506C35.299 24.2131 36.5519 24.4943 38.0093 24.4943C39.4667 24.4943 40.7195 24.2131 41.7678 23.6506C42.8161 23.0795 43.6172 22.2997 44.1712 21.3111C44.7337 20.3139 45.0149 19.1761 45.0149 17.8977V0.818184Z" fill="black"/>
<path d="M2.36169 0.818184H5.99238L13.2537 13.0398H13.5606L20.8219 0.818184H24.4526L14.9924 16.2102V27H11.8219V16.2102L2.36169 0.818184Z" fill="black"/>
</svg>
