<svg width="40" height="40" viewBox="0 0 40 40" fill="none" xmlns="http://www.w3.org/2000/svg">
<path fill-rule="evenodd" clip-rule="evenodd" d="M20 8C13.3726 8 8 13.3726 8 20C8 26.6274 13.3726 32 20 32C26.6274 32 32 26.6274 32 20C32 13.3726 26.6274 8 20 8ZM21.2652 12.3217L15.2652 18.8217C14.9116 19.2048 14.9116 19.7952 15.2652 20.1783L21.2652 26.6783C21.6398 27.0841 22.2725 27.1094 22.6783 26.7348C23.0841 26.3602 23.1094 25.7275 22.7348 25.3217L17.3609 19.5L22.7348 13.6783C23.1094 13.2725 23.0841 12.6398 22.6783 12.2652C22.2725 11.8906 21.6398 11.9159 21.2652 12.3217Z" fill="white"/>
</svg>
