<svg width="40" height="40" viewBox="0 0 40 40" fill="none" xmlns="http://www.w3.org/2000/svg">
<path fill-rule="evenodd" clip-rule="evenodd" d="M20 32C26.6274 32 32 26.6274 32 20C32 13.3726 26.6274 8 20 8C13.3726 8 8 13.3726 8 20C8 26.6274 13.3726 32 20 32ZM18.7348 27.6783L24.7348 21.1783C25.0884 20.7952 25.0884 20.2048 24.7348 19.8217L18.7348 13.3217C18.3602 12.9159 17.7275 12.8906 17.3217 13.2652C16.9159 13.6398 16.8906 14.2725 17.2652 14.6783L22.6391 20.5L17.2652 26.3217C16.8906 26.7275 16.9159 27.3602 17.3217 27.7348C17.7275 28.1094 18.3602 28.0841 18.7348 27.6783Z" fill="white"/>
</svg>
