<svg width="150" height="150" viewBox="0 0 150 150" fill="none" xmlns="http://www.w3.org/2000/svg">
<path d="M118.727 17.0777L132.291 30.5078L75.1094 74.8574L118.727 17.0777Z" fill="black" stroke="black"/>
<path d="M31.2728 132.927L17.7089 119.497L74.8906 75.1475L31.2728 132.927Z" fill="black" stroke="black"/>
<path d="M146.88 64.9655L146.974 84.0531L75.1807 74.9795L146.88 64.9655Z" fill="black" stroke="black"/>
<path d="M3.12048 85.0433L3.02582 65.9557L74.8193 75.0293L3.12048 85.0433Z" fill="black" stroke="black"/>
<path d="M64.9616 3.12145L84.0492 3.0268L74.9756 74.8203L64.9616 3.12145Z" fill="black" stroke="black"/>
<path d="M85.0394 146.881L65.9518 146.975L75.0254 75.1816L85.0394 146.881Z" fill="black" stroke="black"/>
<path d="M17.0758 31.2748L30.5058 17.7109L74.8555 74.8926L17.0758 31.2748Z" fill="black" stroke="black"/>
<path d="M132.925 118.729L119.495 132.293L75.1455 75.1113L132.925 118.729Z" fill="black" stroke="black"/>
</svg>
