<svg width="150" height="150" viewBox="0 0 150 150" fill="none" xmlns="http://www.w3.org/2000/svg">
<path d="M149.146 81.5155L75.0003 75.0001L149.074 71.7025L149.146 81.5155Z" fill="black" stroke="black" stroke-linejoin="round"/>
<path d="M0.855174 68.4854L75.0007 75.0008L0.926847 78.2985L0.855174 68.4854Z" fill="black" stroke="black" stroke-linejoin="round"/>
<path d="M122.822 132.036L75.0004 75.0002L129.71 125.047L122.822 132.036Z" fill="black" stroke="black" stroke-linejoin="round"/>
<path d="M27.1789 17.9649L75.0006 75.0007L20.2907 24.9544L27.1789 17.9649Z" fill="black" stroke="black" stroke-linejoin="round"/>
<path d="M68.4854 149.146L75.0008 75.0003L78.2985 149.074L68.4854 149.146Z" fill="black" stroke="black" stroke-linejoin="round"/>
<path d="M81.5155 0.855179L75.0001 75.0007L71.7025 0.926851L81.5155 0.855179Z" fill="black" stroke="black" stroke-linejoin="round"/>
<path d="M17.9649 122.822L75.0007 75.0004L24.9544 129.71L17.9649 122.822Z" fill="black" stroke="black" stroke-linejoin="round"/>
<path d="M132.036 27.1789L75.0002 75.0006L125.047 20.2907L132.036 27.1789Z" fill="black" stroke="black" stroke-linejoin="round"/>
</svg>
